<?xml version="1.0" encoding="UTF-8"?>
<svg width="700pt" height="700pt" version="1.1" viewBox="0 0 700 700" xmlns="http://www.w3.org/2000/svg">
 <g>
  <path d="m186.67 291.67h-93.336c-6.4414 0-11.668-5.2266-11.668-11.668s5.2266-11.668 11.668-11.668h93.332c6.4414 0 11.668 5.2266 11.668 11.668s-5.2266 11.668-11.664 11.668z"/>
  <path d="m606.67 291.67h-93.332c-6.4414 0-11.668-5.2266-11.668-11.668s5.2266-11.668 11.668-11.668h93.332c6.4414 0 11.668 5.2266 11.668 11.668-0.003907 6.4414-5.2305 11.668-11.668 11.668z"/>
  <path d="m350 431.67c-6.4414 0-11.668-5.2266-11.668-11.668v-396.67c0-6.4414 5.2266-11.668 11.668-11.668s11.668 5.2266 11.668 11.668v396.67c0 6.4414-5.2266 11.668-11.668 11.668z"/>
  <path d="m350 478.33c-76.324 0-101.45-98.234-125.77-193.22-22.633-88.551-46.062-180.11-107.57-180.11-6.4414 0-11.668-5.2266-11.668-11.668 0-6.4375 5.2266-11.664 11.668-11.664 79.613 0 105.33 100.5 130.18 197.66 23.098 90.348 44.941 175.68 103.16 175.68 6.4414 0 11.668 5.2266 11.668 11.668 0 6.4375-5.2266 11.664-11.668 11.664z"/>
  <path d="m350 478.33c-6.4414 0-11.668-5.2266-11.668-11.668 0-6.4414 5.2266-11.668 11.668-11.668 61.508 0 84.934-91.559 107.57-180.11 24.312-94.988 49.445-193.22 125.77-193.22 6.4414 0 11.668 5.2266 11.668 11.668 0 6.4375-5.2266 11.664-11.668 11.664-58.215 0-80.059 85.328-103.16 175.68-24.848 97.16-50.562 197.66-130.18 197.66z"/>
  <path d="m350 548.33c-6.4414 0-11.668-5.2266-11.668-11.668v-23.332c0-6.4414 5.2266-11.668 11.668-11.668s11.668 5.2266 11.668 11.668v23.332c0 6.4414-5.2266 11.668-11.668 11.668z"/>
  <path d="m420 291.67h-140c-6.4414 0-11.668-5.2266-11.668-11.668s5.2266-11.668 11.668-11.668h140c6.4414 0 11.668 5.2266 11.668 11.668s-5.2266 11.668-11.668 11.668z"/>
 </g>
</svg>
